<svg width="216" height="34" viewBox="0 0 216 34" fill="none" xmlns="http://www.w3.org/2000/svg">
<path d="M10.7657 33.069H3.75229L3.79654 27.8919H10.7657C12.5061 27.8919 13.9737 27.501 15.1684 26.7193C16.3631 25.9229 17.2628 24.765 17.8675 23.2458C18.487 21.7266 18.7967 19.8903 18.7967 17.7369V16.1661C18.7967 14.5141 18.6197 13.0613 18.2658 11.8076C17.9265 10.5539 17.4177 9.49933 16.7392 8.64386C16.0607 7.78839 15.2274 7.14679 14.2392 6.71906C13.2509 6.27657 12.1152 6.05533 10.832 6.05533H3.61954V0.856147H10.832C12.9855 0.856147 14.9545 1.22488 16.7392 1.96236C18.5386 2.68508 20.0947 3.72492 21.4074 5.08187C22.7201 6.43882 23.7304 8.06126 24.4384 9.94919C25.1611 11.8224 25.5225 13.9094 25.5225 16.2103V17.7369C25.5225 20.0231 25.1611 22.1101 24.4384 23.9981C23.7304 25.886 22.7201 27.5084 21.4074 28.8654C20.1094 30.2076 18.5534 31.2474 16.7392 31.9849C14.9398 32.7076 12.9486 33.069 10.7657 33.069ZM7.5134 0.856147V33.069H0.876145V0.856147H7.5134ZM40.9652 33.5115C39.1067 33.5115 37.4401 33.2165 35.9651 32.6265C34.4902 32.0218 33.2365 31.1884 32.204 30.1265C31.1863 29.0645 30.4046 27.8329 29.8588 26.4317C29.3131 25.0158 29.0402 23.5113 29.0402 21.9184V21.0334C29.0402 19.2192 29.2984 17.5599 29.8146 16.0555C30.3308 14.551 31.0683 13.2457 32.027 12.1395C33.0005 11.0333 34.1804 10.1852 35.5669 9.5952C36.9533 8.99047 38.5168 8.68811 40.2572 8.68811C41.9534 8.68811 43.4578 8.96835 44.7705 9.52883C46.0832 10.0893 47.1821 10.8858 48.067 11.9182C48.9668 12.9507 49.6452 14.1897 50.1025 15.6351C50.5597 17.0658 50.7883 18.6587 50.7883 20.4139V23.0688H31.7615V18.821H44.5272V18.3343C44.5272 17.4493 44.3649 16.6602 44.0404 15.967C43.7307 15.259 43.2587 14.6985 42.6245 14.2855C41.9903 13.8725 41.179 13.6661 40.1908 13.6661C39.3501 13.6661 38.6274 13.8504 38.0227 14.2192C37.4179 14.5879 36.9238 15.1041 36.5403 15.7679C36.1716 16.4316 35.8914 17.2133 35.6996 18.113C35.5226 18.998 35.4341 19.9714 35.4341 21.0334V21.9184C35.4341 22.8771 35.5669 23.7621 35.8324 24.5733C36.1126 25.3845 36.5035 26.0851 37.0049 26.6751C37.5212 27.2651 38.1407 27.7223 38.8634 28.0468C39.6009 28.3713 40.4342 28.5335 41.3634 28.5335C42.5139 28.5335 43.5832 28.3123 44.5714 27.8698C45.5744 27.4126 46.4372 26.7267 47.16 25.8122L50.2573 29.1751C49.7559 29.8978 49.07 30.5911 48.1998 31.2548C47.3443 31.9185 46.3119 32.4642 45.1024 32.892C43.8929 33.305 42.5139 33.5115 40.9652 33.5115ZM62.2487 28.4229L67.5585 9.13059H74.2178L66.1425 33.069H62.1159L62.2487 28.4229ZM58.5982 9.13059L63.9301 28.445L64.0407 33.069H59.992L51.9167 9.13059H58.5982Z" fill="white"/>
<path d="M103.001 16.2325V28.9981C102.5 29.6028 101.726 30.2592 100.678 30.9672C99.6312 31.6604 98.2816 32.2577 96.6296 32.7592C94.9777 33.2607 92.9792 33.5115 90.634 33.5115C88.5543 33.5115 86.659 33.1722 84.9481 32.4937C83.2371 31.8005 81.7622 30.7902 80.5232 29.4627C79.299 28.1353 78.3551 26.5128 77.6913 24.5954C77.0276 22.6632 76.6957 20.4582 76.6957 17.9803V15.967C76.6957 13.4891 77.0129 11.284 77.6471 9.35184C78.2961 7.41966 79.2179 5.78984 80.4126 4.46239C81.6073 3.13494 83.0306 2.1246 84.6826 1.43138C86.3345 0.738151 88.1708 0.391539 90.1915 0.391539C92.9939 0.391539 95.2948 0.848772 97.0943 1.76324C98.8937 2.66296 100.265 3.91666 101.209 5.52435C102.168 7.11729 102.758 8.94623 102.979 11.0112H96.5411C96.3789 9.91969 96.0692 8.96835 95.6119 8.15713C95.1547 7.34591 94.4983 6.71168 93.6429 6.25445C92.8022 5.79722 91.7107 5.5686 90.3685 5.5686C89.2623 5.5686 88.2741 5.79722 87.4039 6.25445C86.5484 6.69693 85.8257 7.35328 85.2357 8.2235C84.6457 9.09372 84.1958 10.1704 83.8861 11.4536C83.5764 12.7368 83.4215 14.2265 83.4215 15.9227V17.9803C83.4215 19.6617 83.5837 21.1514 83.9082 22.4494C84.2327 23.7326 84.7121 24.8166 85.3463 25.7016C85.9953 26.5718 86.7918 27.2282 87.7357 27.6707C88.6797 28.1132 89.7785 28.3344 91.0322 28.3344C92.0794 28.3344 92.9497 28.2459 93.6429 28.0689C94.3509 27.8919 94.9187 27.678 95.3464 27.4273C95.7889 27.1618 96.1282 26.9111 96.3642 26.6751V20.967H90.3021V16.2325H103.001ZM120.878 27.6707V17.0068C120.878 16.2398 120.752 15.5835 120.502 15.0378C120.251 14.4773 119.86 14.0422 119.329 13.7324C118.813 13.4227 118.142 13.2678 117.316 13.2678C116.608 13.2678 115.996 13.3932 115.479 13.6439C114.963 13.8799 114.565 14.2265 114.285 14.6838C114.005 15.1263 113.864 15.6499 113.864 16.2546H107.493C107.493 15.2369 107.729 14.2708 108.201 13.3563C108.673 12.4418 109.358 11.638 110.258 10.9448C111.158 10.2368 112.227 9.6837 113.466 9.28546C114.72 8.88723 116.121 8.68811 117.67 8.68811C119.528 8.68811 121.18 8.99785 122.626 9.61733C124.071 10.2368 125.207 11.166 126.033 12.405C126.873 13.6439 127.294 15.1926 127.294 17.0511V27.2946C127.294 28.6073 127.375 29.684 127.537 30.5247C127.699 31.3507 127.935 32.0734 128.245 32.6929V33.069H121.807C121.497 32.42 121.261 31.6088 121.099 30.6353C120.952 29.6471 120.878 28.6589 120.878 27.6707ZM121.718 18.4891L121.763 22.0954H118.201C117.36 22.0954 116.63 22.1912 116.01 22.383C115.391 22.5747 114.882 22.8476 114.484 23.2016C114.086 23.5408 113.791 23.9391 113.599 24.3963C113.422 24.8535 113.333 25.355 113.333 25.9007C113.333 26.4465 113.459 26.9406 113.71 27.3831C113.96 27.8108 114.322 28.15 114.794 28.4008C115.266 28.6368 115.819 28.7548 116.453 28.7548C117.412 28.7548 118.245 28.563 118.953 28.1795C119.661 27.796 120.207 27.3241 120.59 26.7636C120.988 26.2031 121.195 25.6721 121.21 25.1706L122.891 27.8698C122.655 28.4745 122.331 29.1014 121.918 29.7503C121.519 30.3993 121.011 31.0114 120.391 31.5866C119.772 32.1471 119.027 32.6117 118.156 32.9805C117.286 33.3345 116.254 33.5115 115.059 33.5115C113.54 33.5115 112.161 33.2091 110.922 32.6044C109.698 31.9849 108.724 31.1368 108.001 30.0601C107.294 28.9686 106.94 27.7297 106.94 26.3432C106.94 25.0895 107.176 23.9759 107.647 23.0025C108.119 22.029 108.813 21.2104 109.727 20.5467C110.656 19.8682 111.814 19.3593 113.201 19.0201C114.587 18.6661 116.195 18.4891 118.024 18.4891H121.718ZM138.577 14.0864V33.069H132.183V9.13059H138.179L138.577 14.0864ZM137.692 20.2591H135.922C135.922 18.5924 136.121 17.0584 136.52 15.6572C136.933 14.2413 137.53 13.0171 138.312 11.9846C139.108 10.9374 140.089 10.1262 141.254 9.55095C142.419 8.97572 143.769 8.68811 145.303 8.68811C146.365 8.68811 147.338 8.85035 148.223 9.17484C149.108 9.48458 149.868 9.97869 150.502 10.6572C151.151 11.3209 151.653 12.1911 152.006 13.2678C152.36 14.3298 152.537 15.6056 152.537 17.0953V33.069H146.166V17.8033C146.166 16.7118 146.018 15.8711 145.723 15.2811C145.428 14.6911 145.008 14.2782 144.462 14.0422C143.931 13.8062 143.29 13.6882 142.537 13.6882C141.711 13.6882 140.989 13.8578 140.369 14.197C139.764 14.5363 139.263 15.0083 138.865 15.613C138.466 16.203 138.171 16.8962 137.98 17.6927C137.788 18.4891 137.692 19.3446 137.692 20.2591ZM151.94 19.529L149.661 19.8166C149.661 18.2531 149.853 16.8003 150.237 15.4581C150.635 14.1159 151.217 12.936 151.984 11.9182C152.766 10.9005 153.732 10.1114 154.883 9.55095C156.033 8.97572 157.361 8.68811 158.865 8.68811C160.015 8.68811 161.063 8.85773 162.007 9.19697C162.951 9.52145 163.754 10.0451 164.418 10.7678C165.097 11.4758 165.613 12.405 165.967 13.5554C166.336 14.7059 166.52 16.1145 166.52 17.7812V33.069H160.126V17.7812C160.126 16.6749 159.979 15.8342 159.684 15.259C159.403 14.669 158.99 14.2634 158.445 14.0422C157.914 13.8062 157.279 13.6882 156.542 13.6882C155.775 13.6882 155.104 13.843 154.529 14.1528C153.953 14.4478 153.474 14.8608 153.091 15.3917C152.707 15.9227 152.419 16.5422 152.228 17.2502C152.036 17.9434 151.94 18.703 151.94 19.529ZM182.472 33.5115C180.613 33.5115 178.946 33.2165 177.471 32.6265C175.996 32.0218 174.743 31.1884 173.71 30.1265C172.693 29.0645 171.911 27.8329 171.365 26.4317C170.819 25.0158 170.547 23.5113 170.547 21.9184V21.0334C170.547 19.2192 170.805 17.5599 171.321 16.0555C171.837 14.551 172.575 13.2457 173.533 12.1395C174.507 11.0333 175.687 10.1852 177.073 9.5952C178.46 8.99047 180.023 8.68811 181.764 8.68811C183.46 8.68811 184.964 8.96835 186.277 9.52883C187.59 10.0893 188.688 10.8858 189.573 11.9182C190.473 12.9507 191.152 14.1897 191.609 15.6351C192.066 17.0658 192.295 18.6587 192.295 20.4139V23.0688H173.268V18.821H186.034V18.3343C186.034 17.4493 185.871 16.6602 185.547 15.967C185.237 15.259 184.765 14.6985 184.131 14.2855C183.497 13.8725 182.685 13.6661 181.697 13.6661C180.856 13.6661 180.134 13.8504 179.529 14.2192C178.924 14.5879 178.43 15.1041 178.047 15.7679C177.678 16.4316 177.398 17.2133 177.206 18.113C177.029 18.998 176.94 19.9714 176.94 21.0334V21.9184C176.94 22.8771 177.073 23.7621 177.339 24.5733C177.619 25.3845 178.01 26.0851 178.511 26.6751C179.028 27.2651 179.647 27.7223 180.37 28.0468C181.107 28.3713 181.941 28.5335 182.87 28.5335C184.02 28.5335 185.09 28.3123 186.078 27.8698C187.081 27.4126 187.944 26.7267 188.666 25.8122L191.764 29.1751C191.262 29.8978 190.576 30.5911 189.706 31.2548C188.851 31.9185 187.818 32.4642 186.609 32.892C185.399 33.305 184.02 33.5115 182.472 33.5115ZM208.866 26.4538C208.866 25.9966 208.733 25.5836 208.467 25.2149C208.202 24.8461 207.708 24.5069 206.985 24.1972C206.277 23.8727 205.252 23.5777 203.91 23.3122C202.7 23.0467 201.572 22.7148 200.525 22.3166C199.492 21.9036 198.593 21.4095 197.826 20.8343C197.073 20.2591 196.484 19.5806 196.056 18.7989C195.628 18.0024 195.414 17.0953 195.414 16.0776C195.414 15.0746 195.628 14.1307 196.056 13.2457C196.498 12.3607 197.125 11.579 197.936 10.9005C198.762 10.2073 199.765 9.66895 200.945 9.28546C202.14 8.88723 203.482 8.68811 204.972 8.68811C207.051 8.68811 208.836 9.01997 210.326 9.6837C211.83 10.3474 212.981 11.2619 213.777 12.4271C214.588 13.5776 214.994 14.8903 214.994 16.3652H208.622C208.622 15.7457 208.49 15.1926 208.224 14.7059C207.973 14.2044 207.575 13.8135 207.029 13.5333C206.498 13.2383 205.805 13.0908 204.95 13.0908C204.242 13.0908 203.63 13.2162 203.113 13.4669C202.597 13.7029 202.199 14.0274 201.919 14.4404C201.653 14.8386 201.52 15.2811 201.52 15.7679C201.52 16.1366 201.594 16.4685 201.742 16.7634C201.904 17.0437 202.162 17.3018 202.516 17.5378C202.87 17.7738 203.327 17.995 203.888 18.2015C204.463 18.3933 205.171 18.5702 206.012 18.7325C207.737 19.0865 209.279 19.5511 210.636 20.1263C211.993 20.6868 213.069 21.4538 213.866 22.4272C214.662 23.3859 215.06 24.647 215.06 26.2105C215.06 27.2724 214.824 28.2459 214.352 29.1309C213.88 30.0158 213.202 30.7902 212.317 31.4539C211.432 32.1029 210.37 32.6117 209.131 32.9805C207.907 33.3345 206.528 33.5115 204.994 33.5115C202.767 33.5115 200.879 33.1132 199.33 32.3167C197.796 31.5203 196.631 30.5099 195.835 29.2857C195.053 28.0468 194.662 26.7783 194.662 25.4804H200.702C200.731 26.3506 200.953 27.0512 201.366 27.5822C201.793 28.1132 202.332 28.4966 202.981 28.7326C203.644 28.9686 204.36 29.0866 205.127 29.0866C205.953 29.0866 206.639 28.976 207.184 28.7548C207.73 28.5188 208.143 28.209 208.423 27.8255C208.718 27.4273 208.866 26.9701 208.866 26.4538Z" fill="#FF455F"/>
</svg>
