<svg width="143" height="23" viewBox="0 0 143 23" fill="none" xmlns="http://www.w3.org/2000/svg">
<path d="M7.45215 22H2.80859L2.83789 18.5723H7.45215C8.60449 18.5723 9.57617 18.3135 10.3672 17.7959C11.1582 17.2686 11.7539 16.502 12.1543 15.4961C12.5645 14.4902 12.7695 13.2744 12.7695 11.8486V10.8086C12.7695 9.71484 12.6523 8.75293 12.418 7.92285C12.1934 7.09277 11.8564 6.39453 11.4072 5.82812C10.958 5.26172 10.4062 4.83691 9.75195 4.55371C9.09766 4.26074 8.3457 4.11426 7.49609 4.11426H2.7207V0.671875H7.49609C8.92188 0.671875 10.2256 0.916016 11.4072 1.4043C12.5986 1.88281 13.6289 2.57129 14.498 3.46973C15.3672 4.36816 16.0361 5.44238 16.5049 6.69238C16.9834 7.93262 17.2227 9.31445 17.2227 10.8379V11.8486C17.2227 13.3623 16.9834 14.7441 16.5049 15.9941C16.0361 17.2441 15.3672 18.3184 14.498 19.2168C13.6387 20.1055 12.6084 20.7939 11.4072 21.2822C10.2158 21.7607 8.89746 22 7.45215 22ZM5.29883 0.671875V22H0.904297V0.671875H5.29883ZM27.4473 22.293C26.2168 22.293 25.1133 22.0977 24.1367 21.707C23.1602 21.3066 22.3301 20.7549 21.6465 20.0518C20.9727 19.3486 20.4551 18.5332 20.0938 17.6055C19.7324 16.668 19.5518 15.6719 19.5518 14.6172V14.0312C19.5518 12.8301 19.7227 11.7314 20.0645 10.7354C20.4062 9.73926 20.8945 8.875 21.5293 8.14258C22.1738 7.41016 22.9551 6.84863 23.873 6.45801C24.791 6.05762 25.8262 5.85742 26.9785 5.85742C28.1016 5.85742 29.0977 6.04297 29.9668 6.41406C30.8359 6.78516 31.5635 7.3125 32.1494 7.99609C32.7451 8.67969 33.1943 9.5 33.4971 10.457C33.7998 11.4043 33.9512 12.459 33.9512 13.6211V15.3789H21.3535V12.5664H29.8057V12.2441C29.8057 11.6582 29.6982 11.1357 29.4834 10.6768C29.2783 10.208 28.9658 9.83691 28.5459 9.56348C28.126 9.29004 27.5889 9.15332 26.9346 9.15332C26.3779 9.15332 25.8994 9.27539 25.499 9.51953C25.0986 9.76367 24.7715 10.1055 24.5176 10.5449C24.2734 10.9844 24.0879 11.502 23.9609 12.0977C23.8438 12.6836 23.7852 13.3281 23.7852 14.0312V14.6172C23.7852 15.252 23.873 15.8379 24.0488 16.375C24.2344 16.9121 24.4932 17.376 24.8252 17.7666C25.167 18.1572 25.5771 18.46 26.0557 18.6748C26.5439 18.8896 27.0957 18.9971 27.7109 18.9971C28.4727 18.9971 29.1807 18.8506 29.835 18.5576C30.499 18.2549 31.0703 17.8008 31.5488 17.1953L33.5996 19.4219C33.2676 19.9004 32.8135 20.3594 32.2373 20.7988C31.6709 21.2383 30.9873 21.5996 30.1865 21.8828C29.3857 22.1562 28.4727 22.293 27.4473 22.293ZM41.5391 18.9238L45.0547 6.15039H49.4639L44.1172 22H41.4512L41.5391 18.9238ZM39.1221 6.15039L42.6523 18.9385L42.7256 22H40.0449L34.6982 6.15039H39.1221Z" fill="white"/>
<path d="M68.5215 10.8525V19.3047C68.1895 19.7051 67.6768 20.1396 66.9834 20.6084C66.29 21.0674 65.3965 21.4629 64.3027 21.7949C63.209 22.127 61.8857 22.293 60.333 22.293C58.9561 22.293 57.7012 22.0684 56.5684 21.6191C55.4355 21.1602 54.459 20.4912 53.6387 19.6123C52.8281 18.7334 52.2031 17.6592 51.7637 16.3896C51.3242 15.1104 51.1045 13.6504 51.1045 12.0098V10.6768C51.1045 9.03613 51.3145 7.57617 51.7344 6.29688C52.1641 5.01758 52.7744 3.93848 53.5654 3.05957C54.3564 2.18066 55.2988 1.51172 56.3926 1.05273C57.4863 0.59375 58.7021 0.364258 60.04 0.364258C61.8955 0.364258 63.4189 0.666992 64.6104 1.27246C65.8018 1.86816 66.71 2.69824 67.335 3.7627C67.9697 4.81738 68.3604 6.02832 68.5068 7.39551H64.2441C64.1367 6.67285 63.9316 6.04297 63.6289 5.50586C63.3262 4.96875 62.8916 4.54883 62.3252 4.24609C61.7686 3.94336 61.0459 3.79199 60.1572 3.79199C59.4248 3.79199 58.7705 3.94336 58.1943 4.24609C57.6279 4.53906 57.1494 4.97363 56.7588 5.5498C56.3682 6.12598 56.0703 6.83887 55.8652 7.68848C55.6602 8.53809 55.5576 9.52441 55.5576 10.6475V12.0098C55.5576 13.123 55.665 14.1094 55.8799 14.9688C56.0947 15.8184 56.4121 16.5361 56.832 17.1221C57.2617 17.6982 57.7891 18.1328 58.4141 18.4258C59.0391 18.7188 59.7666 18.8652 60.5967 18.8652C61.29 18.8652 61.8662 18.8066 62.3252 18.6895C62.7939 18.5723 63.1699 18.4307 63.4531 18.2646C63.7461 18.0889 63.9707 17.9229 64.127 17.7666V13.9873H60.1133V10.8525H68.5215ZM80.3574 18.4258V11.3652C80.3574 10.8574 80.2744 10.4229 80.1084 10.0615C79.9424 9.69043 79.6836 9.40234 79.332 9.19727C78.9902 8.99219 78.5459 8.88965 77.999 8.88965C77.5303 8.88965 77.125 8.97266 76.7832 9.13867C76.4414 9.29492 76.1777 9.52441 75.9922 9.82715C75.8066 10.1201 75.7139 10.4668 75.7139 10.8672H71.4951C71.4951 10.1934 71.6514 9.55371 71.9639 8.94824C72.2764 8.34277 72.7305 7.81055 73.3262 7.35156C73.9219 6.88281 74.6299 6.5166 75.4502 6.25293C76.2803 5.98926 77.208 5.85742 78.2334 5.85742C79.4639 5.85742 80.5576 6.0625 81.5146 6.47266C82.4717 6.88281 83.2236 7.49805 83.7705 8.31836C84.3271 9.13867 84.6055 10.1641 84.6055 11.3945V18.1768C84.6055 19.0459 84.6592 19.7588 84.7666 20.3154C84.874 20.8623 85.0303 21.3408 85.2354 21.751V22H80.9727C80.7676 21.5703 80.6113 21.0332 80.5039 20.3887C80.4062 19.7344 80.3574 19.0801 80.3574 18.4258ZM80.9141 12.3467L80.9434 14.7344H78.585C78.0283 14.7344 77.5449 14.7979 77.1348 14.9248C76.7246 15.0518 76.3877 15.2324 76.124 15.4668C75.8604 15.6914 75.665 15.9551 75.5381 16.2578C75.4209 16.5605 75.3623 16.8926 75.3623 17.2539C75.3623 17.6152 75.4453 17.9424 75.6113 18.2354C75.7773 18.5186 76.0166 18.7432 76.3291 18.9092C76.6416 19.0654 77.0078 19.1436 77.4277 19.1436C78.0625 19.1436 78.6143 19.0166 79.083 18.7627C79.5518 18.5088 79.9131 18.1963 80.167 17.8252C80.4307 17.4541 80.5674 17.1025 80.5771 16.7705L81.6904 18.5576C81.5342 18.958 81.3193 19.373 81.0459 19.8027C80.7822 20.2324 80.4453 20.6377 80.0352 21.0186C79.625 21.3896 79.1318 21.6973 78.5557 21.9414C77.9795 22.1758 77.2959 22.293 76.5049 22.293C75.499 22.293 74.5859 22.0928 73.7656 21.6924C72.9551 21.2822 72.3105 20.7207 71.832 20.0078C71.3633 19.2852 71.1289 18.4648 71.1289 17.5469C71.1289 16.7168 71.2852 15.9795 71.5977 15.335C71.9102 14.6904 72.3691 14.1484 72.9746 13.709C73.5898 13.2598 74.3564 12.9229 75.2744 12.6982C76.1924 12.4639 77.2568 12.3467 78.4678 12.3467H80.9141ZM92.0762 9.43164V22H87.8428V6.15039H91.8125L92.0762 9.43164ZM91.4902 13.5186H90.3184C90.3184 12.415 90.4502 11.3994 90.7139 10.4717C90.9873 9.53418 91.3828 8.72363 91.9004 8.04004C92.4277 7.34668 93.0771 6.80957 93.8486 6.42871C94.6201 6.04785 95.5137 5.85742 96.5293 5.85742C97.2324 5.85742 97.877 5.96484 98.4629 6.17969C99.0488 6.38477 99.5518 6.71191 99.9717 7.16113C100.401 7.60059 100.733 8.17676 100.968 8.88965C101.202 9.59277 101.319 10.4375 101.319 11.4238V22H97.1006V11.8926C97.1006 11.1699 97.0029 10.6133 96.8076 10.2227C96.6123 9.83203 96.334 9.55859 95.9727 9.40234C95.6211 9.24609 95.1963 9.16797 94.6982 9.16797C94.1514 9.16797 93.6729 9.28027 93.2627 9.50488C92.8623 9.72949 92.5303 10.042 92.2666 10.4424C92.0029 10.833 91.8076 11.292 91.6807 11.8193C91.5537 12.3467 91.4902 12.9131 91.4902 13.5186ZM100.924 13.0352L99.415 13.2256C99.415 12.1904 99.542 11.2285 99.7959 10.3398C100.06 9.45117 100.445 8.66992 100.953 7.99609C101.471 7.32227 102.11 6.7998 102.872 6.42871C103.634 6.04785 104.513 5.85742 105.509 5.85742C106.271 5.85742 106.964 5.96973 107.589 6.19434C108.214 6.40918 108.746 6.75586 109.186 7.23438C109.635 7.70312 109.977 8.31836 110.211 9.08008C110.455 9.8418 110.577 10.7744 110.577 11.8779V22H106.344V11.8779C106.344 11.1455 106.246 10.5889 106.051 10.208C105.865 9.81738 105.592 9.54883 105.23 9.40234C104.879 9.24609 104.459 9.16797 103.971 9.16797C103.463 9.16797 103.019 9.27051 102.638 9.47559C102.257 9.6709 101.939 9.94434 101.686 10.2959C101.432 10.6475 101.241 11.0576 101.114 11.5264C100.987 11.9854 100.924 12.4883 100.924 13.0352ZM121.139 22.293C119.908 22.293 118.805 22.0977 117.828 21.707C116.852 21.3066 116.021 20.7549 115.338 20.0518C114.664 19.3486 114.146 18.5332 113.785 17.6055C113.424 16.668 113.243 15.6719 113.243 14.6172V14.0312C113.243 12.8301 113.414 11.7314 113.756 10.7354C114.098 9.73926 114.586 8.875 115.221 8.14258C115.865 7.41016 116.646 6.84863 117.564 6.45801C118.482 6.05762 119.518 5.85742 120.67 5.85742C121.793 5.85742 122.789 6.04297 123.658 6.41406C124.527 6.78516 125.255 7.3125 125.841 7.99609C126.437 8.67969 126.886 9.5 127.188 10.457C127.491 11.4043 127.643 12.459 127.643 13.6211V15.3789H115.045V12.5664H123.497V12.2441C123.497 11.6582 123.39 11.1357 123.175 10.6768C122.97 10.208 122.657 9.83691 122.237 9.56348C121.817 9.29004 121.28 9.15332 120.626 9.15332C120.069 9.15332 119.591 9.27539 119.19 9.51953C118.79 9.76367 118.463 10.1055 118.209 10.5449C117.965 10.9844 117.779 11.502 117.652 12.0977C117.535 12.6836 117.477 13.3281 117.477 14.0312V14.6172C117.477 15.252 117.564 15.8379 117.74 16.375C117.926 16.9121 118.185 17.376 118.517 17.7666C118.858 18.1572 119.269 18.46 119.747 18.6748C120.235 18.8896 120.787 18.9971 121.402 18.9971C122.164 18.9971 122.872 18.8506 123.526 18.5576C124.19 18.2549 124.762 17.8008 125.24 17.1953L127.291 19.4219C126.959 19.9004 126.505 20.3594 125.929 20.7988C125.362 21.2383 124.679 21.5996 123.878 21.8828C123.077 22.1562 122.164 22.293 121.139 22.293ZM138.614 17.6201C138.614 17.3174 138.526 17.0439 138.351 16.7998C138.175 16.5557 137.848 16.3311 137.369 16.126C136.9 15.9111 136.222 15.7158 135.333 15.54C134.532 15.3643 133.785 15.1445 133.092 14.8809C132.408 14.6074 131.812 14.2803 131.305 13.8994C130.807 13.5186 130.416 13.0693 130.133 12.5518C129.85 12.0244 129.708 11.4238 129.708 10.75C129.708 10.0859 129.85 9.46094 130.133 8.875C130.426 8.28906 130.841 7.77148 131.378 7.32227C131.925 6.86328 132.589 6.50684 133.37 6.25293C134.161 5.98926 135.05 5.85742 136.036 5.85742C137.413 5.85742 138.595 6.07715 139.581 6.5166C140.577 6.95605 141.339 7.56152 141.866 8.33301C142.403 9.09473 142.672 9.96387 142.672 10.9404H138.453C138.453 10.5303 138.365 10.1641 138.189 9.8418C138.023 9.50977 137.76 9.25098 137.398 9.06543C137.047 8.87012 136.588 8.77246 136.021 8.77246C135.553 8.77246 135.147 8.85547 134.806 9.02148C134.464 9.17773 134.2 9.39258 134.015 9.66602C133.839 9.92969 133.751 10.2227 133.751 10.5449C133.751 10.7891 133.8 11.0088 133.897 11.2041C134.005 11.3896 134.176 11.5605 134.41 11.7168C134.645 11.873 134.947 12.0195 135.318 12.1562C135.699 12.2832 136.168 12.4004 136.725 12.5078C137.867 12.7422 138.888 13.0498 139.786 13.4307C140.685 13.8018 141.397 14.3096 141.925 14.9541C142.452 15.5889 142.716 16.4238 142.716 17.459C142.716 18.1621 142.56 18.8066 142.247 19.3926C141.935 19.9785 141.485 20.4912 140.899 20.9307C140.313 21.3604 139.61 21.6973 138.79 21.9414C137.979 22.1758 137.066 22.293 136.051 22.293C134.576 22.293 133.326 22.0293 132.301 21.502C131.285 20.9746 130.514 20.3057 129.986 19.4951C129.469 18.6748 129.21 17.835 129.21 16.9756H133.209C133.229 17.5518 133.375 18.0156 133.648 18.3672C133.932 18.7188 134.288 18.9727 134.718 19.1289C135.157 19.2852 135.631 19.3633 136.139 19.3633C136.686 19.3633 137.14 19.29 137.501 19.1436C137.862 18.9873 138.136 18.7822 138.321 18.5283C138.517 18.2646 138.614 17.9619 138.614 17.6201Z" fill="#FF455F"/>
</svg>
