<svg width="29" height="29" viewBox="0 0 29 29" fill="none" xmlns="http://www.w3.org/2000/svg">
<path d="M12.3357 15.3706C12.8402 16.0451 13.4839 16.6032 14.2231 17.0071C14.9623 17.4109 15.7797 17.6511 16.6199 17.7113C17.46 17.7714 18.3033 17.6502 19.0925 17.3558C19.8817 17.0614 20.5984 16.6008 21.1939 16.005L24.7184 12.4806C25.7884 11.3727 26.3804 9.88887 26.3671 8.34869C26.3537 6.80851 25.7359 5.33521 24.6468 4.2461C23.5577 3.15699 22.0844 2.53921 20.5442 2.52583C19.004 2.51244 17.5202 3.10452 16.4123 4.17454L14.3916 6.18349" stroke="white" stroke-width="1.76224" stroke-linecap="round" stroke-linejoin="round"/>
<path d="M17.0349 13.021C16.5304 12.3465 15.8867 11.7884 15.1475 11.3845C14.4083 10.9807 13.5909 10.7405 12.7507 10.6804C11.9105 10.6202 11.0673 10.7414 10.2781 11.0358C9.48887 11.3302 8.77221 11.7909 8.17671 12.3866L4.65223 15.9111C3.58221 17.0189 2.99013 18.5028 3.00352 20.0429C3.0169 21.5831 3.63468 23.0564 4.72379 24.1455C5.8129 25.2346 7.2862 25.8524 8.82638 25.8658C10.3666 25.8792 11.8504 25.2871 12.9582 24.2171L14.9672 22.2081" stroke="white" stroke-width="1.76224" stroke-linecap="round" stroke-linejoin="round"/>
</svg>
